<svg width="30" height="30" viewBox="0 0 30 30" fill="none" xmlns="http://www.w3.org/2000/svg">
<circle cx="15" cy="15" r="15" fill="#15A9CB"/>
<path d="M12.514 15.547C12.6093 15.547 12.6827 15.591 12.734 15.679C12.7927 15.767 12.822 15.888 12.822 16.042C12.822 16.328 12.7523 16.5553 12.613 16.724C12.2023 17.2153 11.8027 17.56 11.414 17.758C11.0327 17.956 10.5707 18.055 10.028 18.055C9.64667 18.055 9.29467 18.0073 8.972 17.912C8.64933 17.8167 8.257 17.6737 7.795 17.483C7.377 17.2997 6.97367 17.1493 6.585 17.032C6.211 17.714 5.65 18.055 4.902 18.055C4.49133 18.055 4.165 17.9633 3.923 17.78C3.67367 17.5893 3.549 17.3473 3.549 17.054C3.549 16.6947 3.72133 16.3977 4.066 16.163C4.41067 15.921 4.869 15.8 5.441 15.8H5.584L5.782 12.599C5.826 11.8657 5.958 11.2607 6.178 10.784C6.398 10.3073 6.70233 9.90033 7.091 9.563C7.42833 9.26967 7.81333 9.04967 8.246 8.903C8.67867 8.749 9.137 8.672 9.621 8.672C10.413 8.672 11.0217 8.87733 11.447 9.288C11.8723 9.69867 12.085 10.234 12.085 10.894C12.085 11.3413 12.0043 11.7043 11.843 11.983C11.6817 12.2543 11.458 12.39 11.172 12.39C10.9667 12.39 10.8053 12.3423 10.688 12.247C10.5707 12.1443 10.512 12.0013 10.512 11.818C10.512 11.752 10.5267 11.631 10.556 11.455C10.6 11.2497 10.622 11.0663 10.622 10.905C10.622 10.597 10.5303 10.355 10.347 10.179C10.171 9.99567 9.89967 9.904 9.533 9.904C8.88767 9.904 8.389 10.1167 8.037 10.542C7.685 10.96 7.46133 11.62 7.366 12.522L7.113 15.019C7.07633 15.371 7.02867 15.6753 6.97 15.932C7.43933 16.0127 8.026 16.141 8.73 16.317C9.14067 16.4197 9.456 16.493 9.676 16.537C9.896 16.581 10.0903 16.603 10.259 16.603C10.6843 16.603 11.0473 16.5333 11.348 16.394C11.656 16.2473 11.9457 16.0163 12.217 15.701C12.305 15.5983 12.404 15.547 12.514 15.547ZM18.4202 14.623C18.5156 14.623 18.5889 14.6707 18.6402 14.766C18.6916 14.8613 18.7172 14.9823 18.7172 15.129C18.7172 15.481 18.6109 15.69 18.3982 15.756C17.9582 15.91 17.4742 15.998 16.9462 16.02C16.8069 16.636 16.5319 17.131 16.1212 17.505C15.7106 17.8717 15.2449 18.055 14.7242 18.055C14.2842 18.055 13.9066 17.9487 13.5912 17.736C13.2832 17.5233 13.0486 17.241 12.8872 16.889C12.7259 16.537 12.6452 16.1557 12.6452 15.745C12.6452 15.1877 12.7516 14.6927 12.9642 14.26C13.1769 13.82 13.4702 13.479 13.8442 13.237C14.2182 12.9877 14.6326 12.863 15.0872 12.863C15.6446 12.863 16.0919 13.0573 16.4292 13.446C16.7739 13.8273 16.9756 14.3003 17.0342 14.865C17.3789 14.843 17.7896 14.7697 18.2662 14.645C18.3249 14.6303 18.3762 14.623 18.4202 14.623ZM14.8122 16.889C15.0469 16.889 15.2486 16.7937 15.4172 16.603C15.5932 16.4123 15.7106 16.1373 15.7692 15.778C15.5419 15.624 15.3659 15.4223 15.2412 15.173C15.1239 14.9237 15.0652 14.6597 15.0652 14.381C15.0652 14.2637 15.0762 14.1463 15.0982 14.029H15.0432C14.7499 14.029 14.5042 14.172 14.3062 14.458C14.1156 14.7367 14.0202 15.1327 14.0202 15.646C14.0202 16.0493 14.0972 16.3573 14.2512 16.57C14.4126 16.7827 14.5996 16.889 14.8122 16.889ZM23.4051 15.569C23.5005 15.569 23.5738 15.6167 23.6251 15.712C23.6838 15.8 23.7131 15.9137 23.7131 16.053C23.7131 16.2217 23.6875 16.3537 23.6361 16.449C23.5848 16.5443 23.5041 16.6287 23.3941 16.702C22.7635 17.1273 22.3015 17.4427 22.0081 17.648L21.3041 18.121C21.0255 19.639 20.6588 20.8307 20.2041 21.696C19.7568 22.5687 19.1848 23.005 18.4881 23.005C18.1141 23.005 17.8098 22.8877 17.5751 22.653C17.3405 22.4257 17.2231 22.125 17.2231 21.751C17.2231 21.2303 17.4285 20.6693 17.8391 20.068C18.2498 19.474 19.0198 18.7407 20.1491 17.868L20.2151 17.439C20.0905 17.637 19.9255 17.791 19.7201 17.901C19.5221 18.0037 19.3241 18.055 19.1261 18.055C18.6715 18.055 18.3085 17.89 18.0371 17.56C17.7658 17.23 17.6301 16.7973 17.6301 16.262C17.6301 15.6753 17.7658 15.1217 18.0371 14.601C18.3085 14.073 18.6678 13.6513 19.1151 13.336C19.5698 13.0133 20.0501 12.852 20.5561 12.852C20.7175 12.852 20.8238 12.885 20.8751 12.951C20.9338 13.0097 20.9815 13.1197 21.0181 13.281C21.1575 13.2517 21.3188 13.237 21.5021 13.237C21.6855 13.237 21.8138 13.2663 21.8871 13.325C21.9678 13.3763 22.0081 13.4827 22.0081 13.644C22.0081 13.732 22.0045 13.8017 21.9971 13.853C21.9678 14.0803 21.8761 14.656 21.7221 15.58C21.6928 15.756 21.6598 15.9503 21.6231 16.163C21.5938 16.3683 21.5608 16.5883 21.5241 16.823C22.0888 16.383 22.6315 15.9943 23.1521 15.657C23.2475 15.5983 23.3318 15.569 23.4051 15.569ZM19.5221 16.944C19.6908 16.944 19.8521 16.8413 20.0061 16.636C20.1601 16.4307 20.2701 16.1373 20.3361 15.756L20.6881 13.875C20.3875 13.8823 20.1088 13.9997 19.8521 14.227C19.5955 14.447 19.3901 14.7403 19.2361 15.107C19.0821 15.4737 19.0051 15.8623 19.0051 16.273C19.0051 16.5003 19.0491 16.669 19.1371 16.779C19.2325 16.889 19.3608 16.944 19.5221 16.944ZM18.6091 21.938C18.7925 21.938 18.9978 21.718 19.2251 21.278C19.4598 20.838 19.6835 20.1377 19.8961 19.177C19.3315 19.661 18.9245 20.0973 18.6751 20.486C18.4258 20.8747 18.3011 21.2157 18.3011 21.509C18.3011 21.6337 18.3231 21.7363 18.3671 21.817C18.4185 21.8977 18.4991 21.938 18.6091 21.938ZM24.8958 18.055C24.4631 18.055 24.0928 17.9487 23.7848 17.736C23.4841 17.516 23.2568 17.23 23.1028 16.878C22.9488 16.526 22.8718 16.1483 22.8718 15.745C22.8718 15.1877 22.9745 14.6927 23.1798 14.26C23.3925 13.82 23.6785 13.479 24.0378 13.237C24.3971 12.9877 24.8005 12.863 25.2478 12.863C25.6805 12.863 26.0508 12.973 26.3588 13.193C26.6668 13.4057 26.8978 13.688 27.0518 14.04C27.2058 14.392 27.2828 14.7697 27.2828 15.173C27.2828 15.7303 27.1765 16.229 26.9638 16.669C26.7511 17.1017 26.4615 17.4427 26.0948 17.692C25.7355 17.934 25.3358 18.055 24.8958 18.055ZM25.0168 16.867C25.2661 16.867 25.4751 16.7313 25.6438 16.46C25.8198 16.1887 25.9078 15.7927 25.9078 15.272C25.9078 14.8687 25.8345 14.5643 25.6878 14.359C25.5411 14.1537 25.3651 14.051 25.1598 14.051C24.8958 14.051 24.6758 14.1867 24.4998 14.458C24.3311 14.722 24.2468 15.118 24.2468 15.646C24.2468 16.064 24.3201 16.372 24.4668 16.57C24.6135 16.768 24.7968 16.867 25.0168 16.867Z" fill="white"/>
</svg>
